<?xml version="1.0" encoding="iso-8859-1"?>
<!-- Generator: Adobe Illustrator 19.0.0, SVG Export Plug-In . SVG Version: 6.00 Build 0)  -->
<svg version="1.1" id="Capa_1" xmlns="http://www.w3.org/2000/svg" xmlns:xlink="http://www.w3.org/1999/xlink" x="0px" y="0px"
	 viewBox="0 0 385.201 385.201" style="enable-background:new 0 0 385.201 385.201;" xml:space="preserve">
<g>
	<path id="Border_Arrow_Down" d="M201.735,381.658l179.781-179.781c2.43-2.43,3.621-5.618,3.597-8.794
		c0-0.096,0.048-0.168,0.048-0.265V12.364c0-6.641-5.39-12.03-12.03-12.03c-0.096,0-0.168,0.048-0.265,0.048
		c-3.176-0.024-6.364,1.167-8.794,3.597L192.688,175.375L20.932,3.618c-4.824-4.824-12.644-4.824-17.468,0
		C0.6,6.481-0.35,10.367,0.179,14.084v176.978c-0.529,3.717,0.421,7.603,3.284,10.466l180.118,180.118
		c2.502,2.502,5.799,3.645,9.083,3.549C195.937,385.292,199.233,384.161,201.735,381.658z M24.252,187.381V41.862l159.329,159.329
		c2.502,2.502,5.799,3.645,9.083,3.549c3.272,0.096,6.569-1.047,9.071-3.549L361.101,41.838v145.579L192.688,355.829L24.252,187.381
		z"/>
	<g>
	</g>
	<g>
	</g>
	<g>
	</g>
	<g>
	</g>
	<g>
	</g>
	<g>
	</g>
</g>
<g>
</g>
<g>
</g>
<g>
</g>
<g>
</g>
<g>
</g>
<g>
</g>
<g>
</g>
<g>
</g>
<g>
</g>
<g>
</g>
<g>
</g>
<g>
</g>
<g>
</g>
<g>
</g>
<g>
</g>
</svg>
