<svg width="0" height="0" class="hidden">
  <symbol xmlns="http://www.w3.org/2000/svg" viewBox="0 0 20 20" id="like">
    <path fill="#8c8c8c" d="M18.9 11.377c0 .663-.218 1.3-.612 1.82a3.016 3.016 0 01-.485 2.688 3.014 3.014 0 01-1.709 3.642 1.558 1.558 0 01-.621.128H1.38a.75.75 0 01-.75-.75v-8.531a.75.75 0 01.75-.75h3.03l2.014-7.29A2.725 2.725 0 019.044.34a2.499 2.499 0 011.826.783c.478.504.724 1.165.691 1.86l-.14 2.881h5.62c.283 0 .56.075.804.218.947.556 1.535 1.552 1.535 2.604 0 .663-.218 1.3-.612 1.821.085.281.127.574.131.87zm-14.684 6.59v-6.656H2.317v6.656zm13.017-8.273c.29-.256.46-.621.46-1.008 0-.448-.258-.879-.676-1.134H9.65l.225-4.65a.833.833 0 00-.837-.872 1.034 1.034 0 00-.989.757l-2.332 8.45v6.728h9.733a1.332 1.332 0 00.626-1.854l-.326-.595.514-.445a1.338 1.338 0 00.297-1.648l-.325-.595.513-.446a1.338 1.338 0 00.298-1.647l-.326-.596z"></path>
  </symbol>
  <symbol xmlns="http://www.w3.org/2000/svg" viewBox="0 0 20 20" id="save">
    <path fill="#8c8c8c" d="M18.942 4.88c.281.28.438.66.438 1.059V18.63a.75.75 0 01-.75.75H1.38a.75.75 0 01-.75-.75V1.38a.75.75 0 01.75-.75h13.125v.063c.234.07.45.2.626.375zM7.005 4.754h6V2.317h-6zm10.688 1.26l-3.188-3.187v2.677a.75.75 0 01-.75.75h-7.5a.75.75 0 01-.75-.75V2.317H2.317v15.375h15.375zM13.38 11.74a3.376 3.376 0 11-6.752-.001 3.376 3.376 0 016.752.001zm-1.5 0a1.874 1.874 0 10-3.749 0 1.874 1.874 0 003.749 0z"></path>
  </symbol>
  <symbol xmlns="http://www.w3.org/2000/svg" viewBox="0 0 18 20" id="share">
    <path fill="#8c8c8c" d="M17.435 16.372a2.815 2.815 0 01-2.813 2.813 2.815 2.815 0 01-2.702-3.593l-4.612-3.34A3.749 3.749 0 01.56 9.997a3.749 3.749 0 016.748-2.254l4.612-3.34A2.815 2.815 0 0114.622.81a2.815 2.815 0 012.813 2.812 2.815 2.815 0 01-2.813 2.813 2.8 2.8 0 01-1.767-.626L8 9.322a3.78 3.78 0 010 1.35l4.856 3.514a2.8 2.8 0 011.767-.626 2.815 2.815 0 012.813 2.812zm-4.031-12.75a1.22 1.22 0 102.438 0 1.22 1.22 0 00-2.438 0zM6.372 9.998A2.066 2.066 0 004.31 7.934a2.066 2.066 0 00-2.063 2.063c0 1.136.926 2.062 2.063 2.062a2.066 2.066 0 002.063-2.063zm9.47 6.374a1.22 1.22 0 10-2.44.001 1.22 1.22 0 002.44 0z"></path>
  </symbol>
  <symbol xmlns="http://www.w3.org/2000/svg" viewBox="0 0 22 22" id="comment">
    <path fill="#8c8c8c" d="M10.205 10.204a1.125 1.125 0 111.59 1.592 1.125 1.125 0 01-1.59-1.591zm4.687 0a1.125 1.125 0 111.591 1.592 1.125 1.125 0 01-1.59-1.591zm-9.375 0a1.125 1.125 0 111.591 1.592 1.125 1.125 0 01-1.59-1.591zm15.983.843a10.473 10.473 0 01-3.103 7.418 10.417 10.417 0 01-3.347 2.231 10.507 10.507 0 01-4.048.804h-.049a10.533 10.533 0 01-4.685-1.125H2.703a1.078 1.078 0 01-1.078-1.078v-3.563A10.533 10.533 0 01.5 11.05c-.007-1.42.265-2.8.804-4.099a10.405 10.405 0 012.231-3.347A10.476 10.476 0 0110.953.5H11c1.411 0 2.78.274 4.069.816a10.505 10.505 0 015.616 5.616c.546 1.302.822 2.688.815 4.115zm-1.776-.007a8.683 8.683 0 00-2.553-6.206 8.662 8.662 0 00-2.789-1.875 8.677 8.677 0 00-3.38-.678h-.04a8.653 8.653 0 00-6.159 2.576 8.665 8.665 0 00-2.522 6.183 8.75 8.75 0 001.02 4.057l.105.197v3.3h3.3l.197.105a8.75 8.75 0 004.057 1.02H11c2.32 0 4.5-.896 6.143-2.522a8.686 8.686 0 002.58-6.157z"></path>
  </symbol>
</svg>