<svg xmlns="http://www.w3.org/2000/svg" width="18" height="20" viewBox="0 0 18 20"><g><g><path fill="#8c8c8c" d="M17.435 16.372a2.815 2.815 0 0 1-2.813 2.813 2.815 2.815 0 0 1-2.702-3.593l-4.612-3.34A3.749 3.749 0 0 1 .56 9.997a3.749 3.749 0 0 1 6.748-2.254l4.612-3.34A2.815 2.815 0 0 1 14.622.81a2.815 2.815 0 0 1 2.813 2.812 2.815 2.815 0 0 1-2.813 2.813 2.8 2.8 0 0 1-1.767-.626L8 9.322c.081.447.081.904 0 1.35l4.856 3.514a2.8 2.8 0 0 1 1.767-.626 2.815 2.815 0 0 1 2.813 2.812zm-4.031-12.75a1.22 1.22 0 1 0 2.438 0 1.22 1.22 0 0 0-2.438 0zM6.372 9.998A2.066 2.066 0 0 0 4.31 7.934a2.066 2.066 0 0 0-2.063 2.063c0 1.136.926 2.062 2.063 2.062a2.066 2.066 0 0 0 2.063-2.063zm9.47 6.374a1.22 1.22 0 1 0-2.44.001 1.22 1.22 0 0 0 2.44 0z"/></g></g></svg>