<svg xmlns="http://www.w3.org/2000/svg" width="20" height="20" viewBox="0 0 20 20"><g><g><path fill="#8c8c8c" d="M18.942 4.88c.281.28.438.66.438 1.059V18.63a.75.75 0 0 1-.75.75H1.38a.75.75 0 0 1-.75-.75V1.38a.75.75 0 0 1 .75-.75h13.125v.063c.234.07.45.2.626.375zM7.005 4.754h6V2.317h-6zm10.688 1.26l-3.188-3.187v2.677a.75.75 0 0 1-.75.75h-7.5a.75.75 0 0 1-.75-.75V2.317H2.317v15.375h15.375zM13.38 11.74a3.376 3.376 0 1 1-6.752-.001 3.376 3.376 0 0 1 6.752.001zm-1.5 0a1.874 1.874 0 1 0-3.749 0 1.874 1.874 0 0 0 3.749 0z"/></g></g></svg>