<svg xmlns="http://www.w3.org/2000/svg" width="22" height="22" viewBox="0 0 22 22"><g><g><path fill="#8c8c8c" d="M10.205 10.204a1.125 1.125 0 1 1 1.59 1.592 1.125 1.125 0 0 1-1.59-1.591zm4.687 0a1.125 1.125 0 1 1 1.591 1.592 1.125 1.125 0 0 1-1.59-1.591zm-9.375 0a1.125 1.125 0 1 1 1.591 1.592 1.125 1.125 0 0 1-1.59-1.591zm15.983.843a10.473 10.473 0 0 1-3.103 7.418 10.417 10.417 0 0 1-3.347 2.231 10.507 10.507 0 0 1-4.048.804h-.049a10.533 10.533 0 0 1-4.685-1.125H2.703a1.078 1.078 0 0 1-1.078-1.078v-3.563A10.533 10.533 0 0 1 .5 11.05c-.007-1.42.265-2.8.804-4.099a10.405 10.405 0 0 1 2.231-3.347A10.476 10.476 0 0 1 10.953.5H11c1.411 0 2.78.274 4.069.816a10.505 10.505 0 0 1 5.616 5.616c.546 1.302.822 2.688.815 4.115zm-1.776-.007a8.683 8.683 0 0 0-2.553-6.206 8.662 8.662 0 0 0-2.789-1.875 8.677 8.677 0 0 0-3.38-.678h-.04a8.653 8.653 0 0 0-6.159 2.576 8.665 8.665 0 0 0-2.522 6.183 8.75 8.75 0 0 0 1.02 4.057l.105.197v3.3h3.3l.197.105a8.75 8.75 0 0 0 4.057 1.02H11c2.32 0 4.5-.896 6.143-2.522a8.686 8.686 0 0 0 2.58-6.157z"/></g></g></svg>