<svg width="0" height="0" class="hidden">
  <symbol xmlns="http://www.w3.org/2000/svg" viewBox="0 0 20 20" id="like">
    <path d="M18.9 11.377c0 .663-.218 1.3-.612 1.82a3.016 3.016 0 01-.485 2.688 3.014 3.014 0 01-1.709 3.642 1.558 1.558 0 01-.621.128H1.38a.75.75 0 01-.75-.75v-8.531a.75.75 0 01.75-.75h3.03l2.014-7.29A2.725 2.725 0 019.044.34a2.499 2.499 0 011.826.783c.478.504.724 1.165.691 1.86l-.14 2.881h5.62c.283 0 .56.075.804.218.947.556 1.535 1.552 1.535 2.604 0 .663-.218 1.3-.612 1.821.085.281.127.574.131.87zm-14.684 6.59v-6.656H2.317v6.656zm13.017-8.273c.29-.256.46-.621.46-1.008 0-.448-.258-.879-.676-1.134H9.65l.225-4.65a.833.833 0 00-.837-.872 1.034 1.034 0 00-.989.757l-2.332 8.45v6.728h9.733a1.332 1.332 0 00.626-1.854l-.326-.595.514-.445a1.338 1.338 0 00.297-1.648l-.325-.595.513-.446a1.338 1.338 0 00.298-1.647l-.326-.596z"></path>
  </symbol>

  <symbol xmlns="http://www.w3.org/2000/svg" viewBox="0 0 20 20" id="save">
    <path d="M18.942 4.88c.281.28.438.66.438 1.059V18.63a.75.75 0 01-.75.75H1.38a.75.75 0 01-.75-.75V1.38a.75.75 0 01.75-.75h13.125v.063c.234.07.45.2.626.375zM7.005 4.754h6V2.317h-6zm10.688 1.26l-3.188-3.187v2.677a.75.75 0 01-.75.75h-7.5a.75.75 0 01-.75-.75V2.317H2.317v15.375h15.375zM13.38 11.74a3.376 3.376 0 11-6.752-.001 3.376 3.376 0 016.752.001zm-1.5 0a1.874 1.874 0 10-3.749 0 1.874 1.874 0 003.749 0z"></path>
  </symbol>

  <symbol xmlns="http://www.w3.org/2000/svg" viewBox="0 0 18 20" id="share">
    <path d="M17.435 16.372a2.815 2.815 0 01-2.813 2.813 2.815 2.815 0 01-2.702-3.593l-4.612-3.34A3.749 3.749 0 01.56 9.997a3.749 3.749 0 016.748-2.254l4.612-3.34A2.815 2.815 0 0114.622.81a2.815 2.815 0 012.813 2.812 2.815 2.815 0 01-2.813 2.813 2.8 2.8 0 01-1.767-.626L8 9.322a3.78 3.78 0 010 1.35l4.856 3.514a2.8 2.8 0 011.767-.626 2.815 2.815 0 012.813 2.812zm-4.031-12.75a1.22 1.22 0 102.438 0 1.22 1.22 0 00-2.438 0zM6.372 9.998A2.066 2.066 0 004.31 7.934a2.066 2.066 0 00-2.063 2.063c0 1.136.926 2.062 2.063 2.062a2.066 2.066 0 002.063-2.063zm9.47 6.374a1.22 1.22 0 10-2.44.001 1.22 1.22 0 002.44 0z"></path>
  </symbol>

  <symbol xmlns="http://www.w3.org/2000/svg" viewBox="0 0 22 22" id="comment">
    <path d="M10.205 10.204a1.125 1.125 0 111.59 1.592 1.125 1.125 0 01-1.59-1.591zm4.687 0a1.125 1.125 0 111.591 1.592 1.125 1.125 0 01-1.59-1.591zm-9.375 0a1.125 1.125 0 111.591 1.592 1.125 1.125 0 01-1.59-1.591zm15.983.843a10.473 10.473 0 01-3.103 7.418 10.417 10.417 0 01-3.347 2.231 10.507 10.507 0 01-4.048.804h-.049a10.533 10.533 0 01-4.685-1.125H2.703a1.078 1.078 0 01-1.078-1.078v-3.563A10.533 10.533 0 01.5 11.05c-.007-1.42.265-2.8.804-4.099a10.405 10.405 0 012.231-3.347A10.476 10.476 0 0110.953.5H11c1.411 0 2.78.274 4.069.816a10.505 10.505 0 015.616 5.616c.546 1.302.822 2.688.815 4.115zm-1.776-.007a8.683 8.683 0 00-2.553-6.206 8.662 8.662 0 00-2.789-1.875 8.677 8.677 0 00-3.38-.678h-.04a8.653 8.653 0 00-6.159 2.576 8.665 8.665 0 00-2.522 6.183 8.75 8.75 0 001.02 4.057l.105.197v3.3h3.3l.197.105a8.75 8.75 0 004.057 1.02H11c2.32 0 4.5-.896 6.143-2.522a8.686 8.686 0 002.58-6.157z"></path>
  </symbol>

  <symbol xmlns="http://www.w3.org/2000/svg" viewBox="0 0 12 14" id="publish">
    <path d="M11.5 8.528a5.41 5.41 0 01-1.613 3.858 5.446 5.446 0 01-1.748 1.167A5.525 5.525 0 016 13.98a5.498 5.498 0 01-3.888-1.596 5.46 5.46 0 01-1.18-1.733 5.434 5.434 0 01.133-4.536 5.51 5.51 0 011.568-1.898 4.62 4.62 0 00.742-.72 4.46 4.46 0 00.734-1.274c.141-.376.2-.83.177-1.342l-.034-.75a.125.125 0 01.187-.114l.645.38c.885.522 1.593 1.27 2.102 2.23.616 1.154.897 2.215.839 3.156a.092.092 0 00.031.075c.024.022.05.025.067.023a.098.098 0 00.064-.031c.33-.367.563-.74.69-1.106l.203-.583a.126.126 0 01.203-.052l.454.418A5.429 5.429 0 0111.5 8.528zm-1.063 0a4.33 4.33 0 00-.374-1.767 4.308 4.308 0 00-.547-.913c-.15.243-.33.48-.538.713-.206.23-.489.366-.797.381a1.146 1.146 0 01-1.132-.717 1.156 1.156 0 01-.083-.511c.047-.74-.194-1.61-.716-2.589a4.74 4.74 0 00-.956-1.256 3.75 3.75 0 01-.19.726 5.535 5.535 0 01-.909 1.578c-.27.331-.577.629-.915.888a4.42 4.42 0 00-1.263 1.53 4.312 4.312 0 00-.454 1.937c0 1.17.46 2.27 1.296 3.1A4.43 4.43 0 006 12.916a4.43 4.43 0 003.14-1.288 4.336 4.336 0 001.297-3.1z"></path>
  </symbol>

  <symbol xmlns="http://www.w3.org/2000/svg" viewBox="0 0 14 12" id="photo">
    <path d="M13.5.5a.5.5 0 01.5.5v10a.5.5 0 01-.5.5H.5A.5.5 0 010 11V1A.5.5 0 01.5.5zm-.625 9.4L9.283 5.64 5.634 9.967 3.29 7.184 1.125 9.752v.623h11.75zm0-8.275H1.125v6.573l2.069-2.453c.05-.06.14-.06.19 0l2.25 2.667L9.187 4.2c.05-.06.141-.06.191 0l3.497 4.147zM2.778 4.722a1.375 1.375 0 111.944-1.944 1.375 1.375 0 01-1.944 1.944zm.534-.972a.437.437 0 10.874.001.437.437 0 00-.873-.001z"></path>
  </symbol>

  <symbol xmlns="http://www.w3.org/2000/svg" viewBox="0 0 14 12" id="video">
    <path d="M13.25 2.723a.5.5 0 01.75.433v5.69a.5.5 0 01-.75.43l-2-1.151V10.5a1 1 0 01-1 1H1a1 1 0 01-1-1v-9a1 1 0 011-1h9.25a1 1 0 011 1v2.375zm-3.125-1.098h-9v8.75h9zm2.75 2.61l-1.625.935v1.661l1.625.935zM2.25 3.624a.125.125 0 01-.125-.125v-.75c0-.069.056-.125.125-.125H4c.069 0 .125.056.125.125v.75A.125.125 0 014 3.625z"></path>
  </symbol>

  <symbol xmlns="http://www.w3.org/2000/svg" viewBox="0 0 48 13" id="logo">
    <path d="M.992.727h4.383c1.125 0 2.04.349 2.742 1.046.703.693 1.055 1.602 1.055 2.727 0 1.12-.362 2.029-1.086 2.727-.719.697-1.651 1.046-2.797 1.046H3.008V12H.992V.727zm2.016 1.648v4.273h1.828c.724 0 1.286-.187 1.687-.562.401-.375.602-.904.602-1.586 0-.677-.2-1.2-.602-1.57-.395-.37-.955-.555-1.68-.555H3.009zM10.5 12V3.719h1.945V12H10.5zm1.734-9.672a1.055 1.055 0 01-.765.305 1.055 1.055 0 01-1.078-1.055c0-.297.104-.547.312-.75.209-.208.464-.312.766-.312s.557.104.765.312c.214.203.32.453.32.75 0 .292-.106.542-.32.75zm3.868 4.844l3.117-3.453h2.242L18.148 7.28 21.602 12h-2.25l-2.618-3.54-.656.665V12h-1.945V.727h1.945v6.445h.024zm9.265 3.492c.557 0 1.026-.164 1.406-.492.386-.333.579-.748.579-1.242v-.633l-1.915.117c-.468.031-.833.149-1.093.352a.949.949 0 00-.383.789c0 .338.128.61.383.812.26.198.601.297 1.023.297zm-.586 1.469c-.807 0-1.471-.232-1.992-.695-.516-.464-.773-1.066-.773-1.805 0-.735.27-1.315.812-1.742.547-.427 1.326-.672 2.336-.735l2.188-.125v-.593c0-.433-.139-.769-.415-1.008-.27-.24-.648-.36-1.132-.36-.453 0-.823.102-1.11.305-.286.203-.46.48-.523.828h-1.805c.042-.786.378-1.424 1.008-1.914.635-.495 1.471-.742 2.508-.742 1.026 0 1.846.25 2.46.75.62.5.93 1.167.93 2V12h-1.875v-1.32h-.039a2.609 2.609 0 01-1.062 1.062 3.1 3.1 0 01-1.516.39zm9.157 0c-1.047 0-1.883-.386-2.508-1.156-.62-.771-.93-1.813-.93-3.125 0-1.308.31-2.347.93-3.118.625-.77 1.46-1.156 2.508-1.156.583 0 1.098.138 1.546.414.453.276.792.649 1.016 1.117h.047V.727h1.945V12h-1.906v-1.414h-.031c-.23.474-.576.851-1.04 1.133-.458.276-.984.414-1.578.414zm.585-6.953c-.625 0-1.12.242-1.484.726-.364.48-.547 1.13-.547 1.953 0 .829.18 1.482.54 1.961.364.48.861.72 1.491.72.615 0 1.107-.243 1.477-.727.37-.485.555-1.136.555-1.954 0-.812-.185-1.46-.555-1.945a1.759 1.759 0 00-1.477-.734zm12.946-1.461V12h-1.875v-1.438h-.04c-.458 1.058-1.301 1.586-2.53 1.586-.902 0-1.618-.273-2.149-.82-.526-.552-.79-1.305-.79-2.258V3.72h1.946v4.96c0 .594.14 1.048.422 1.36.287.313.703.469 1.25.469.557 0 1-.182 1.328-.547.328-.365.492-.849.492-1.453v-4.79h1.946z"></path>
  </symbol>
  
  <symbol xmlns="http://www.w3.org/2000/svg" viewBox="0 0 14 14" id="search">
    <path d="M13.213 12.352a.13.13 0 01.027.14.129.129 0 01-.028.04l-.68.68a.128.128 0 01-.182 0L8.292 9.156a4.65 4.65 0 01-2.854.969 4.65 4.65 0 01-3.315-1.373A4.66 4.66 0 01.75 5.437a4.65 4.65 0 011.373-3.314A4.66 4.66 0 015.438.75c1.251 0 2.43.487 3.314 1.373a4.66 4.66 0 011.373 3.314c0 1.047-.34 2.043-.97 2.857zM8.938 5.437c0-.934-.365-1.812-1.026-2.475a3.472 3.472 0 00-2.475-1.025c-.934 0-1.812.365-2.475 1.025a3.478 3.478 0 00-1.025 2.475c0 .935.365 1.813 1.025 2.475a3.481 3.481 0 002.475 1.025c.935 0 1.813-.364 2.475-1.024a3.478 3.478 0 001.025-2.476z"></path>
  </symbol>

  <symbol xmlns="http://www.w3.org/2000/svg" viewBox="0 0 21 20" id="logout">
    <path d="M21.12 9.996c0 5.603-4.542 10.146-10.143 10.134C5.382 20.118.805 15.468.87 9.871A10.14 10.14 0 016.458.93a.189.189 0 01.272.169v1.507c0 .129-.066.25-.176.319a8.473 8.473 0 00-1.458 1.167 8.329 8.329 0 00-2.442 5.906 8.32 8.32 0 002.442 5.906 8.274 8.274 0 002.654 1.79 8.265 8.265 0 003.246.657c1.125 0 2.22-.22 3.246-.656a8.274 8.274 0 002.653-1.79 8.33 8.33 0 002.442-5.906 8.319 8.319 0 00-2.442-5.907 8.255 8.255 0 00-1.458-1.167.383.383 0 01-.176-.32V1.102a.188.188 0 01.272-.169 10.133 10.133 0 015.588 9.064zM10.247 11.13a.188.188 0 01-.188-.188V.069c0-.104.085-.188.188-.188h1.5c.103 0 .187.084.187.188v10.875a.188.188 0 01-.187.187z"></path>
  </symbol>

</svg>