<svg xmlns="http://www.w3.org/2000/svg" width="20" height="20" viewBox="0 0 20 20"><g><g><path fill="#8c8c8c" d="M18.9 11.377c0 .663-.218 1.3-.612 1.82a3.016 3.016 0 0 1-.485 2.688 3.014 3.014 0 0 1-1.709 3.642 1.558 1.558 0 0 1-.621.128H1.38a.75.75 0 0 1-.75-.75v-8.531a.75.75 0 0 1 .75-.75h3.03l2.014-7.29A2.725 2.725 0 0 1 9.044.34a2.499 2.499 0 0 1 1.826.783c.478.504.724 1.165.691 1.86l-.14 2.881h5.62c.283 0 .56.075.804.218.947.556 1.535 1.552 1.535 2.604 0 .663-.218 1.3-.612 1.821.085.281.127.574.131.87zm-14.684 6.59v-6.656H2.317v6.656zm13.017-8.273c.29-.256.46-.621.46-1.008 0-.448-.258-.879-.676-1.134H9.65l.225-4.65a.833.833 0 0 0-.837-.872 1.034 1.034 0 0 0-.989.757l-2.332 8.45v6.728h9.733a1.332 1.332 0 0 0 .626-1.854l-.326-.595.514-.445a1.338 1.338 0 0 0 .297-1.648l-.325-.595.513-.446a1.338 1.338 0 0 0 .298-1.647l-.326-.596z"/></g></g></svg>