<svg xmlns="http://www.w3.org/2000/svg" width="21" height="20" viewBox="0 0 21 20"><g><g><path d="M21.12 9.996c0 5.603-4.542 10.146-10.143 10.134C5.382 20.118.805 15.468.87 9.871A10.14 10.14 0 0 1 6.458.93a.189.189 0 0 1 .272.169v1.507c0 .129-.066.25-.176.319a8.473 8.473 0 0 0-1.458 1.167 8.329 8.329 0 0 0-2.442 5.906 8.32 8.32 0 0 0 2.442 5.906 8.274 8.274 0 0 0 2.654 1.79 8.265 8.265 0 0 0 3.246.657c1.125 0 2.22-.22 3.246-.656a8.274 8.274 0 0 0 2.653-1.79 8.33 8.33 0 0 0 2.442-5.906 8.319 8.319 0 0 0-2.442-5.907 8.255 8.255 0 0 0-1.458-1.167.383.383 0 0 1-.176-.32V1.102a.188.188 0 0 1 .272-.169 10.133 10.133 0 0 1 5.588 9.064zM10.247 11.13a.188.188 0 0 1-.188-.188V.069c0-.104.085-.188.188-.188h1.5c.103 0 .187.084.187.188v10.875a.188.188 0 0 1-.187.187z"/></g></g></svg>