<svg xmlns="http://www.w3.org/2000/svg" width="12" height="14" viewBox="0 0 12 14"><g><g><path fill="#fff" d="M11.5 8.528a5.41 5.41 0 0 1-1.613 3.858 5.446 5.446 0 0 1-1.748 1.167A5.525 5.525 0 0 1 6 13.98a5.498 5.498 0 0 1-3.888-1.596 5.46 5.46 0 0 1-1.18-1.733 5.434 5.434 0 0 1 .133-4.536 5.51 5.51 0 0 1 1.568-1.898 4.62 4.62 0 0 0 .742-.72c.316-.385.562-.813.734-1.274.141-.376.2-.83.177-1.342l-.034-.75a.125.125 0 0 1 .187-.114l.645.38c.885.522 1.593 1.27 2.102 2.23.616 1.154.897 2.215.839 3.156a.092.092 0 0 0 .031.075c.024.022.05.025.067.023a.098.098 0 0 0 .064-.031c.33-.367.563-.74.69-1.106l.203-.583a.126.126 0 0 1 .203-.052l.454.418A5.429 5.429 0 0 1 11.5 8.528zm-1.063 0a4.33 4.33 0 0 0-.374-1.767 4.308 4.308 0 0 0-.547-.913c-.15.243-.33.48-.538.713-.206.23-.489.366-.797.381a1.146 1.146 0 0 1-1.132-.717 1.156 1.156 0 0 1-.083-.511c.047-.74-.194-1.61-.716-2.589-.264-.49-.58-.91-.956-1.256a3.75 3.75 0 0 1-.19.726 5.535 5.535 0 0 1-.909 1.578c-.27.331-.577.629-.915.888a4.42 4.42 0 0 0-1.263 1.53 4.312 4.312 0 0 0-.454 1.937c0 1.17.46 2.27 1.296 3.1A4.43 4.43 0 0 0 6 12.916a4.43 4.43 0 0 0 3.14-1.288 4.336 4.336 0 0 0 1.297-3.1z"/></g></g></svg>